<svg width="418" height="35" viewBox="0 0 418 35" fill="none" xmlns="http://www.w3.org/2000/svg">
<path d="M12.5 23.55H0.5V20.25H12.5V23.55ZM59.3797 34H54.6297L51.6797 26.55H35.0797L32.1297 34H27.3797L40.8297 0.649997H45.9797L59.3797 34ZM50.4797 22.9L43.3797 4.9L36.3297 22.9H50.4797ZM77.0844 34.6C67.2344 34.6 60.5344 27.2 60.5344 17.35C60.5344 7.5 67.2344 0.0999984 77.0844 0.0999984C86.9344 0.0999984 93.6844 7.5 93.6844 17.35C93.6844 27.2 86.9344 34.6 77.0844 34.6ZM77.0844 30.9C84.5344 30.9 89.3844 25.1 89.3844 17.35C89.3844 9.55 84.5344 3.8 77.0844 3.8C69.5844 3.8 64.8344 9.55 64.8344 17.35C64.8344 25.1 69.5844 30.9 77.0844 30.9ZM111.965 34H107.815V19.9L94.6648 0.649997H99.5148L109.865 16.15L120.215 0.649997H125.065L111.965 19.9V34ZM151.953 23.55H139.953V20.25H151.953V23.55ZM198.833 34H194.083L191.133 26.55H174.533L171.583 34H166.833L180.283 0.649997H185.433L198.833 34ZM189.933 22.9L182.833 4.9L175.783 22.9H189.933ZM216.538 34.6C206.688 34.6 199.988 27.2 199.988 17.35C199.988 7.5 206.688 0.0999984 216.538 0.0999984C226.388 0.0999984 233.138 7.5 233.138 17.35C233.138 27.2 226.388 34.6 216.538 34.6ZM216.538 30.9C223.988 30.9 228.838 25.1 228.838 17.35C228.838 9.55 223.988 3.8 216.538 3.8C209.038 3.8 204.288 9.55 204.288 17.35C204.288 25.1 209.038 30.9 216.538 30.9ZM251.418 34H247.268V19.9L234.118 0.649997H238.968L249.318 16.15L259.668 0.649997H264.518L251.418 19.9V34ZM291.406 23.55H279.406V20.25H291.406V23.55ZM325.346 34H320.596L317.646 26.55H301.046L298.096 34H293.346L306.796 0.649997H311.946L325.346 34ZM316.446 22.9L309.346 4.9L302.296 22.9H316.446ZM343.051 34.6C333.201 34.6 326.501 27.2 326.501 17.35C326.501 7.5 333.201 0.0999984 343.051 0.0999984C352.901 0.0999984 359.651 7.5 359.651 17.35C359.651 27.2 352.901 34.6 343.051 34.6ZM343.051 30.9C350.501 30.9 355.351 25.1 355.351 17.35C355.351 9.55 350.501 3.8 343.051 3.8C335.551 3.8 330.801 9.55 330.801 17.35C330.801 25.1 335.551 30.9 343.051 30.9ZM377.932 34H373.782V19.9L360.632 0.649997H365.482L375.832 16.15L386.182 0.649997H391.032L377.932 19.9V34ZM417.92 23.55H405.92V20.25H417.92V23.55Z" fill="white"/>
</svg>
